<?xml version="1.0" standalone="no"?>
<!DOCTYPE svg PUBLIC "-//W3C//DTD SVG 20010904//EN"
 "http://www.w3.org/TR/2001/REC-SVG-20010904/DTD/svg10.dtd">
<svg version="1.0" xmlns="http://www.w3.org/2000/svg"
 width="700.000000pt" height="700.000000pt" viewBox="0 0 700.000000 700.000000"
 preserveAspectRatio="xMidYMid meet">
<metadata>
Created by potrace 1.14, written by Peter Selinger 2001-2017
</metadata>
<g transform="translate(0.000000,700.000000) scale(0.100000,-0.100000)"
fill="#000000" stroke="none">
<path d="M663 5993 l-393 -3 0 -155 0 -155 835 0 c789 0 835 -1 835 -17 0 -23
-83 -390 -105 -465 l-16 -58 -675 0 -674 0 0 -1425 0 -1425 155 0 155 0 0 115
0 115 1245 0 1245 0 0 -1260 0 -1260 1550 0 1550 0 0 1480 0 1480 -835 0
c-459 0 -835 4 -835 9 0 4 36 82 79 172 44 90 107 229 140 309 53 129 58 146
43 152 -21 9 -341 68 -369 68 -16 0 -24 -17 -48 -102 -36 -131 -134 -419 -177
-523 l-34 -80 -212 -3 -212 -2 0 1090 0 1090 -875 0 c-481 0 -875 3 -875 6 0
3 24 81 54 173 29 92 66 211 81 264 l28 97 899 0 899 0 -3 158 -3 157 -1530 0
c-841 0 -1707 -1 -1922 -2z m737 -2168 l0 -1005 -307 2 -308 3 -3 1003 -2
1002 310 0 310 0 0 -1005z m1220 765 l0 -240 -457 2 -458 3 -3 238 -2 237 460
0 460 0 0 -240z m960 -695 l0 -935 -155 0 -155 0 0 -70 0 -70 -172 2 -173 3
-3 1003 -2 1002 330 0 330 0 0 -935z m-960 -55 l0 -240 -460 0 -460 0 0 240 0
240 460 0 460 0 0 -240z m0 -765 l0 -255 -460 0 -460 0 0 255 0 255 460 0 460
0 0 -255z m3410 -930 l0 -495 -1220 0 -1220 0 0 320 0 320 160 0 160 0 0 175
0 175 1060 0 1060 0 0 -495z m0 -1330 l0 -505 -1220 0 -1220 0 0 505 0 505
1220 0 1220 0 0 -505z"/>
</g>
</svg>
